HIERARCHY
ROOT Hips
{
 OFFSET 0.000000 0.000000 0.000000
 CHANNELS 6 Xposition Yposition Zposition Yrotation Xrotation Zrotation
 JOINT Chest
 {
  OFFSET 0.000000 9.857222 0.000240
  CHANNELS 3 Yrotation Xrotation Zrotation
  JOINT Chest2
  {
   OFFSET 0.000000 10.876940 -0.000436
   CHANNELS 3 Yrotation Xrotation Zrotation
   JOINT Chest3
   {
    OFFSET 0.000000 9.827798 0.000000
    CHANNELS 3 Yrotation Xrotation Zrotation
    JOINT Chest4
    {
     OFFSET 0.000000 9.827798 0.000000
     CHANNELS 3 Yrotation Xrotation Zrotation
     JOINT Neck
     {
      OFFSET 0.000000 13.831992 0.000000
      CHANNELS 3 Yrotation Xrotation Zrotation
      JOINT Head
      {
       OFFSET 0.000000 9.147643 -0.001036
       CHANNELS 3 Yrotation Xrotation Zrotation
       End Site
       {
        OFFSET 0.000000 17.515799 -0.000541
       }
      }
     }
     JOINT RightCollar
     {
      OFFSET -3.001579 7.717577 0.000000
      CHANNELS 3 Yrotation Xrotation Zrotation
      JOINT RightShoulder
      {
       OFFSET -14.002642 0.000000 0.000000
       CHANNELS 3 Yrotation Xrotation Zrotation
       JOINT RightElbow
       {
        OFFSET -30.053852 0.000000 0.000000
        CHANNELS 3 Yrotation Xrotation Zrotation
        JOINT RightWrist
        {
         OFFSET -24.564923 0.000000 -0.000000
         CHANNELS 3 Yrotation Xrotation Zrotation
         End Site
         {
          OFFSET -18.334355 0.000000 0.000000
         }
        }
       }
      }
     }
     JOINT LeftCollar
     {
      OFFSET 3.001579 7.717577 0.000000
      CHANNELS 3 Yrotation Xrotation Zrotation
      JOINT LeftShoulder
      {
       OFFSET 14.002642 0.000000 0.000000
       CHANNELS 3 Yrotation Xrotation Zrotation
       JOINT LeftElbow
       {
        OFFSET 30.053852 0.000000 0.000000
        CHANNELS 3 Yrotation Xrotation Zrotation
        JOINT LeftWrist
        {
         OFFSET 24.564923 0.000000 -0.000000
         CHANNELS 3 Yrotation Xrotation Zrotation
         End Site
         {
          OFFSET 18.334355 0.000000 0.000000
         }
        }
       }
      }
     }
    }
   }
  }
 }
 JOINT RightHip
 {
  OFFSET -8.003235 -0.001175 -0.000120
  CHANNELS 3 Yrotation Xrotation Zrotation
  JOINT RightKnee
  {
   OFFSET 0.000000 -41.759727 0.000113
   CHANNELS 3 Yrotation Xrotation Zrotation
   JOINT RightAnkle
   {
    OFFSET 0.000000 -40.728748 0.000159
    CHANNELS 3 Yrotation Xrotation Zrotation
    JOINT RightToe
    {
     OFFSET 0.000000 -6.515296 14.732841
     CHANNELS 3 Yrotation Xrotation Zrotation
     End Site
     {
      OFFSET 0.000000 -1.502839 6.412115
     }
    }
   }
  }
 }
 JOINT LeftHip
 {
  OFFSET 8.003235 -0.001175 -0.000120
  CHANNELS 3 Yrotation Xrotation Zrotation
  JOINT LeftKnee
  {
   OFFSET 0.000000 -41.759727 0.000113
   CHANNELS 3 Yrotation Xrotation Zrotation
   JOINT LeftAnkle
   {
    OFFSET 0.000000 -40.728748 0.000159
    CHANNELS 3 Yrotation Xrotation Zrotation
    JOINT LeftToe
    {
     OFFSET 0.000000 -6.515296 14.732841
     CHANNELS 3 Yrotation Xrotation Zrotation
     End Site
     {
      OFFSET 0.000000 -1.502839 6.412115
     }
    }
   }
  }
 }
}
MOTION
Frames: 5
Frame Time: 0.016667
0.000000 88.822259 0.000000 0.000000 -5.826342 0.000000 0.000000 11.116423 0.000000 0.000000 -5.290081 0.000000 0.000000 0.000000 0.000000 0.000000 0.000000 0.000000 0.000000 12.665069 0.000000 0.000000 0.575450 0.000000 0.000000 0.000000 0.000000 0.000000 0.000000 0.000000 2.337306 0.000000 0.000000 -2.337306 0.000000 0.000000 0.000000 0.000000 0.000000 0.000000 0.000000 0.000000 -2.337306 0.000000 0.000000 2.337306 0.000000 0.000000 0.000000 8.578828 0.000000 0.000000 1.905768 0.000000 0.000000 -4.658254 0.000000 0.000000 0.000000 0.000000 0.000000 8.578828 0.000000 0.000000 1.905768 0.000000 0.000000 -4.658254 0.000000 0.000000 0.000000 0.000000
4.109476 90.477467 5.775540 -32.180034 -8.467203 2.035887 4.307194 3.768194 -0.436504 1.924270 1.666333 -0.230185 1.924270 1.666333 -0.230185 1.443729 1.249040 -0.177877 -3.500879 22.079341 2.321266 -6.970887 5.035721 5.165071 0.014879 8.983785 10.274019 56.982677 15.936846 79.410183 48.701628 -40.449855 -25.505219 0.488894 -3.278779 -4.249945 -15.991090 13.488177 -8.400896 -43.959034 4.192051 -71.868226 -25.212309 -3.332128 -2.217665 18.224612 -3.526651 -4.373291 -4.231243 13.634516 -3.254349 5.463222 0.807769 1.504428 -2.157988 -5.693994 -1.330403 -0.024440 0.031178 0.002579 3.167531 7.131473 -3.026166 -2.045590 6.630824 0.633085 -1.381525 -4.241019 0.593807 0.026766 0.001443 0.012959
4.099955 90.475610 5.791304 -32.227876 -8.493679 2.044427 4.299400 3.741702 -0.448337 1.921082 1.654289 -0.235589 1.921082 1.654289 -0.235589 1.441350 1.239991 -0.181883 -3.517747 22.096614 2.315742 -6.998892 5.068541 5.158656 0.017013 9.022832 10.250505 56.950770 15.925709 79.411505 48.762601 -40.431494 -25.519278 0.494027 -3.277040 -4.234908 -15.993841 13.530151 -8.413365 -43.915206 4.213879 -71.850978 -25.211407 -3.339778 -2.235514 18.203764 -3.532042 -4.367073 -4.212752 13.662479 -3.262031 5.454975 0.822495 1.503340 -2.137370 -5.707734 -1.328576 -0.023583 0.033326 -0.001357 3.093410 7.156066 -3.039204 -1.975560 6.659238 0.623605 -1.336005 -4.262577 0.598807 0.025323 -0.001711 0.011018
4.093712 90.474018 5.808663 -32.270015 -8.520245 2.057478 4.287877 3.719620 -0.463793 1.916342 1.644422 -0.242644 1.916342 1.644422 -0.242644 1.437811 1.232570 -0.187130 -3.531616 22.110512 2.308858 -7.021289 5.094781 5.149168 0.024139 9.057768 10.236124 56.912085 15.915934 79.405736 48.847017 -40.402706 -25.536458 0.497759 -3.282278 -4.230708 -15.996200 13.575761 -8.419821 -43.880226 4.229222 -71.825908 -25.207565 -3.347108 -2.254684 18.178544 -3.552648 -4.356679 -4.204620 13.688329 -3.279710 5.439921 0.842091 1.505805 -2.134447 -5.726463 -1.320293 -0.022155 0.035960 -0.007008 3.008933 7.178634 -3.059653 -1.897189 6.688387 0.617312 -1.313110 -4.281899 0.604734 0.022110 -0.005491 0.008561
4.086063 90.473103 5.825116 -32.309760 -8.549365 2.072539 4.272802 3.705995 -0.475959 1.910306 1.638429 -0.249012 1.910306 1.638429 -0.249012 1.433300 1.228058 -0.191871 -3.541484 22.119903 2.299653 -7.036071 5.112194 5.134673 0.034549 9.095404 10.214975 56.867207 15.898785 79.382230 48.920583 -40.350382 -25.541119 0.500220 -3.282464 -4.224638 -15.998368 13.615991 -8.433743 -43.859937 4.245724 -71.787536 -25.209096 -3.378223 -2.267862 18.156862 -3.563594 -4.342237 -4.217452 13.718028 -3.306390 5.417828 0.856998 1.512003 -2.095538 -5.743126 -1.313341 -0.020925 0.038947 -0.013156 2.939115 7.204451 -3.073561 -1.821210 6.717662 0.598695 -1.308468 -4.301222 0.616122 0.021313 -0.009350 0.008222
